<svg xmlns="http://www.w3.org/2000/svg" width="512" height="512" viewBox="0 0 64 64" role="img" aria-label="Clean Code Solutions Favicon">
  <defs>
    <linearGradient id="g" x1="0" x2="1" y1="0" y2="1">
      <stop offset="0" stop-color="#64d2ff"/>
      <stop offset="1" stop-color="#30d158"/>
    </linearGradient>
    <filter id="shadow" x="-50%" y="-50%" width="200%" height="200%">
      <feDropShadow dx="0" dy="4" stdDeviation="3" flood-opacity="0.5"/>
    </filter>
  </defs>

  <!-- Rounded square base matching dark theme background -->
  <rect x="4" y="4" width="56" height="56" rx="14" fill="#0b0b0f"/>

  <!-- Glassy inner panel -->
  <g filter="url(#shadow)">
    <rect x="8" y="8" width="48" height="48" rx="12"
          fill="rgba(255,255,255,0.06)" stroke="rgba(255,255,255,0.12)"/>
  </g>

  <!-- Logo mark: two stylized C brackets { } to hint at code -->
  <g transform="translate(32,32) scale(0.8)">
    <!-- Left brace -->
    <path d="M-14,-16 c-6,0 -8,4 -8,10 v2 c0,4 -2,6 -6,6 v4 c4,0 6,2 6,6 v2 c0,6 2,10 8,10 h4 v-6 h-2 c-3,0 -4,-2 -4,-6 v-2 c0,-5 -2,-8 -6,-9 c4,-1 6,-4 6,-9 v-2 c0,-4 1,-6 4,-6 h2 v-6 z" fill="url(#g)"/>
    <!-- Right brace (mirrored) -->
    <path d="M14,-16 c6,0 8,4 8,10 v2 c0,4 2,6 6,6 v4 c-4,0 -6,2 -6,6 v2 c0,6 -2,10 -8,10 h-4 v-6 h2 c3,0 4,-2 4,-6 v-2 c0,-5 2,-8 6,-9 c-4,-1 -6,-4 -6,-9 v-2 c0,-4 -1,-6 -4,-6 h-2 v-6 z" fill="url(#g)"/>
  </g>

  <!-- Small highlight dot -->
  <circle cx="18" cy="16" r="2.2" fill="#fff" opacity="0.45"/>
</svg>
