<svg width="858" height="911" viewBox="0 0 858 911" fill="none" xmlns="http://www.w3.org/2000/svg">
<path d="M458.796 466.965V444.192C458.796 440.73 456.94 437.512 453.913 435.756L434.185 424.394C431.157 422.639 427.446 422.639 424.418 424.394L404.69 435.756C401.663 437.512 399.807 440.73 399.807 444.192V466.965C399.807 470.428 401.663 473.646 404.69 475.402L424.418 486.764C427.446 488.519 431.157 488.519 434.185 486.764L453.913 475.402C456.94 473.646 458.796 470.428 458.796 466.965Z" fill="#BB95F8"/>
<g opacity="0.8">
<path d="M350.388 390.891L370.117 402.253C373.144 404.008 376.855 404.008 379.883 402.253L399.611 390.891C402.639 389.135 404.494 385.917 404.494 382.454V359.682C404.494 356.219 402.639 353.001 399.611 351.245L379.883 339.883C376.855 338.128 373.144 338.128 370.117 339.883L350.388 351.245C347.361 353.001 345.505 356.219 345.505 359.682V382.454C345.505 385.917 347.361 389.135 350.388 390.891Z" fill="#BB95F8"/>
<path d="M345.506 466.962V444.189C345.506 440.727 343.65 437.508 340.623 435.753L320.895 424.391C317.867 422.635 314.156 422.635 311.128 424.391L291.4 435.753C288.372 437.508 286.517 440.727 286.517 444.189V466.962C286.517 470.424 288.372 473.643 291.4 475.398L311.128 486.76C314.156 488.516 317.867 488.516 320.895 486.76L340.623 475.398C343.65 473.643 345.506 470.424 345.506 466.962Z" fill="#BB95F8"/>
<path d="M399.661 520.31L379.933 508.948C376.906 507.192 373.194 507.192 370.167 508.948L350.439 520.31C347.411 522.065 345.555 525.284 345.555 528.746V551.519C345.555 554.981 347.411 558.2 350.439 559.955L370.167 571.317C373.194 573.073 376.906 573.073 379.933 571.317L399.661 559.955C402.689 558.2 404.545 554.981 404.545 551.519V528.746C404.545 525.284 402.689 522.065 399.661 520.31Z" fill="#BB95F8"/>
<path d="M458.941 390.891L478.669 402.253C481.697 404.008 485.408 404.008 488.435 402.253L508.164 390.891C511.191 389.135 513.047 385.917 513.047 382.454V359.682C513.047 356.219 511.191 353.001 508.164 351.245L488.435 339.883C485.408 338.128 481.697 338.128 478.669 339.883L458.941 351.245C455.913 353.001 454.058 356.219 454.058 359.682V382.454C454.058 385.917 455.913 389.135 458.941 390.891Z" fill="#BB95F8"/>
<path d="M572.085 466.962V444.189C572.085 440.727 570.229 437.508 567.202 435.753L547.474 424.391C544.446 422.635 540.735 422.635 537.707 424.391L517.979 435.753C514.952 437.508 513.096 440.727 513.096 444.189V466.962C513.096 470.424 514.952 473.643 517.979 475.398L537.707 486.76C540.735 488.516 544.446 488.516 547.474 486.76L567.202 475.398C570.229 473.643 572.085 470.424 572.085 466.962Z" fill="#BB95F8"/>
<path d="M508.213 520.31L488.485 508.948C485.458 507.192 481.746 507.192 478.719 508.948L458.991 520.31C455.963 522.065 454.108 525.284 454.108 528.746V551.519C454.108 554.981 455.963 558.2 458.991 559.955L478.719 571.317C481.746 573.073 485.458 573.073 488.485 571.317L508.213 559.955C511.241 558.2 513.097 554.981 513.097 551.519V528.746C513.097 525.284 511.241 522.065 508.213 520.31Z" fill="#BB95F8"/>
</g>
<g opacity="0.4">
<path d="M160.042 275.37L179.77 286.733C182.798 288.488 186.509 288.488 189.536 286.733L209.264 275.37C212.292 273.615 214.148 270.396 214.148 266.934V244.161C214.148 240.699 212.292 237.481 209.264 235.725L189.536 224.363C186.509 222.608 182.798 222.608 179.77 224.363L160.042 235.725C157.014 237.481 155.159 240.699 155.159 244.161V266.934C155.159 270.396 157.014 273.615 160.042 275.37Z" fill="#BB95F8"/>
<path d="M255.214 220.413L274.942 231.776C277.969 233.531 281.681 233.531 284.708 231.776L304.436 220.413C307.464 218.658 309.32 215.439 309.32 211.977V189.204C309.32 185.742 307.464 182.524 304.436 180.768L284.708 169.406C281.681 167.65 277.969 167.65 274.942 169.406L255.214 180.768C252.186 182.524 250.331 185.742 250.331 189.204V211.977C250.331 215.439 252.186 218.658 255.214 220.413Z" fill="#BB95F8"/>
<path d="M350.388 165.457L370.116 176.819C373.144 178.575 376.855 178.575 379.883 176.819L399.611 165.457C402.639 163.702 404.494 160.483 404.494 157.021V134.248C404.494 130.786 402.639 127.567 399.611 125.812L379.883 114.45C376.855 112.694 373.144 112.694 370.116 114.45L350.388 125.812C347.361 127.567 345.505 130.786 345.505 134.248V157.021C345.505 160.483 347.361 163.702 350.388 165.457Z" fill="#BB95F8"/>
<path d="M96.1702 330.67V353.443C96.1702 356.906 98.0258 360.124 101.053 361.879L120.782 373.242C123.809 374.997 127.52 374.997 130.548 373.242L150.276 361.879C153.304 360.124 155.159 356.906 155.159 353.443V330.67C155.159 327.208 153.304 323.99 150.276 322.234L130.548 310.872C127.52 309.117 123.809 309.117 120.782 310.872L101.053 322.234C98.0258 323.99 96.1702 327.208 96.1702 330.67Z" fill="#BB95F8"/>
<path d="M150.276 435.71L130.548 424.348C127.52 422.593 123.809 422.593 120.782 424.348L101.053 435.71C98.0258 437.466 96.1702 440.684 96.1702 444.146V466.919C96.1702 470.382 98.0258 473.6 101.053 475.356L120.782 486.718C123.809 488.473 127.52 488.473 130.548 486.718L150.276 475.356C153.304 473.6 155.159 470.382 155.159 466.919V444.146C155.159 440.684 153.304 437.466 150.276 435.71Z" fill="#BB95F8"/>
<path d="M209.31 635.837L189.582 624.475C186.555 622.72 182.844 622.72 179.816 624.475L160.088 635.837C157.06 637.593 155.205 640.811 155.205 644.273V667.046C155.205 670.509 157.06 673.727 160.088 675.483L179.816 686.845C182.844 688.6 186.555 688.6 189.582 686.845L209.31 675.483C212.338 673.727 214.194 670.509 214.194 667.046V644.273C214.194 640.811 212.338 637.593 209.31 635.837Z" fill="#BB95F8"/>
<path d="M304.486 690.796L284.758 679.434C281.731 677.678 278.019 677.678 274.992 679.434L255.264 690.796C252.236 692.551 250.38 695.77 250.38 699.232V722.005C250.38 725.467 252.236 728.686 255.264 730.441L274.992 741.803C278.019 743.559 281.731 743.559 284.758 741.803L304.486 730.441C307.514 728.686 309.37 725.467 309.37 722.005V699.232C309.37 695.77 307.514 692.551 304.486 690.796Z" fill="#BB95F8"/>
<path d="M399.661 745.75L379.932 734.388C376.905 732.633 373.194 732.633 370.166 734.388L350.438 745.75C347.41 747.506 345.555 750.724 345.555 754.186V776.959C345.555 780.422 347.41 783.64 350.438 785.396L370.166 796.758C373.194 798.513 376.905 798.513 379.932 796.758L399.661 785.396C402.688 783.64 404.544 780.422 404.544 776.959V754.186C404.544 750.724 402.688 747.506 399.661 745.75Z" fill="#BB95F8"/>
<path d="M155.159 580.537V557.764C155.159 554.302 153.304 551.083 150.276 549.328L130.548 537.966C127.52 536.21 123.809 536.21 120.782 537.966L101.053 549.328C98.0258 551.083 96.1702 554.302 96.1702 557.764V580.537C96.1702 583.999 98.0258 587.217 101.053 588.973L120.782 600.335C123.809 602.091 127.52 602.091 130.548 600.335L150.276 588.973C153.304 587.217 155.159 583.999 155.159 580.537Z" fill="#BB95F8"/>
<path d="M649.291 275.37L669.019 286.733C672.047 288.488 675.758 288.488 678.785 286.733L698.513 275.37C701.541 273.615 703.397 270.396 703.397 266.934V244.161C703.397 240.699 701.541 237.481 698.513 235.725L678.785 224.363C675.758 222.608 672.047 222.608 669.019 224.363L649.291 235.725C646.263 237.481 644.408 240.699 644.408 244.161V266.934C644.408 270.396 646.263 273.615 649.291 275.37Z" fill="#BB95F8"/>
<path d="M554.116 220.413L573.844 231.776C576.872 233.531 580.583 233.531 583.611 231.776L603.339 220.413C606.366 218.658 608.222 215.439 608.222 211.977V189.204C608.222 185.742 606.366 182.524 603.339 180.768L583.611 169.406C580.583 167.65 576.872 167.65 573.844 169.406L554.116 180.768C551.088 182.524 549.233 185.742 549.233 189.204V211.977C549.233 215.439 551.088 218.658 554.116 220.413Z" fill="#BB95F8"/>
<path d="M458.941 165.457L478.669 176.819C481.696 178.575 485.408 178.575 488.435 176.819L508.163 165.457C511.191 163.702 513.047 160.483 513.047 157.021V134.248C513.047 130.786 511.191 127.567 508.163 125.812L488.435 114.45C485.408 112.694 481.696 112.694 478.669 114.45L458.941 125.812C455.913 127.567 454.057 130.786 454.057 134.248V157.021C454.057 160.483 455.913 163.702 458.941 165.457Z" fill="#BB95F8"/>
<path d="M703.396 330.67V353.443C703.396 356.906 705.252 360.124 708.279 361.879L728.008 373.242C731.035 374.997 734.746 374.997 737.774 373.242L757.502 361.879C760.53 360.124 762.385 356.906 762.385 353.443V330.67C762.385 327.208 760.53 323.99 757.502 322.234L737.774 310.872C734.746 309.117 731.035 309.117 728.008 310.872L708.279 322.234C705.252 323.99 703.396 327.208 703.396 330.67Z" fill="#BB95F8"/>
<path d="M757.548 435.71L737.82 424.348C734.793 422.593 731.082 422.593 728.054 424.348L708.326 435.71C705.298 437.466 703.443 440.684 703.443 444.146V466.919C703.443 470.382 705.298 473.6 708.326 475.356L728.054 486.718C731.082 488.473 734.793 488.473 737.82 486.718L757.548 475.356C760.576 473.6 762.432 470.382 762.432 466.919V444.146C762.432 440.684 760.576 437.466 757.548 435.71Z" fill="#BB95F8"/>
<path d="M698.513 635.837L678.785 624.475C675.758 622.72 672.047 622.72 669.019 624.475L649.291 635.837C646.263 637.593 644.408 640.811 644.408 644.273V667.046C644.408 670.509 646.263 673.727 649.291 675.483L669.019 686.845C672.047 688.6 675.758 688.6 678.785 686.845L698.513 675.483C701.541 673.727 703.397 670.509 703.397 667.046V644.273C703.397 640.811 701.541 637.593 698.513 635.837Z" fill="#BB95F8"/>
<path d="M603.388 690.796L583.66 679.434C580.632 677.678 576.921 677.678 573.894 679.434L554.165 690.796C551.138 692.551 549.282 695.77 549.282 699.232V722.005C549.282 725.467 551.138 728.686 554.165 730.441L573.894 741.803C576.921 743.559 580.632 743.559 583.66 741.803L603.388 730.441C606.416 728.686 608.271 725.467 608.271 722.005V699.232C608.271 695.77 606.416 692.551 603.388 690.796Z" fill="#BB95F8"/>
<path d="M508.213 745.75L488.485 734.388C485.457 732.633 481.746 732.633 478.718 734.388L458.99 745.75C455.962 747.506 454.107 750.724 454.107 754.186V776.959C454.107 780.422 455.962 783.64 458.99 785.396L478.718 796.758C481.746 798.513 485.457 798.513 488.485 796.758L508.213 785.396C511.24 783.64 513.096 780.422 513.096 776.959V754.186C513.096 750.724 511.24 747.506 508.213 745.75Z" fill="#BB95F8"/>
<path d="M762.432 580.537V557.764C762.432 554.302 760.576 551.083 757.548 549.328L737.82 537.966C734.793 536.21 731.082 536.21 728.054 537.966L708.326 549.328C705.298 551.083 703.443 554.302 703.443 557.764V580.537C703.443 583.999 705.298 587.217 708.326 588.973L728.054 600.335C731.082 602.091 734.793 602.091 737.82 600.335L757.548 588.973C760.576 587.217 762.432 583.999 762.432 580.537Z" fill="#BB95F8"/>
</g>
<g opacity="0.2">
<path d="M64.8672 217.583L84.5954 228.945C87.6229 230.7 91.3342 230.7 94.3618 228.945L114.09 217.583C117.117 215.827 118.973 212.609 118.973 209.146V186.373C118.973 182.911 117.117 179.693 114.09 177.937L94.3618 166.575C91.3342 164.82 87.6229 164.82 84.5954 166.575L64.8672 177.937C61.8396 179.693 59.984 182.911 59.984 186.373V209.146C59.984 212.609 61.8396 215.827 64.8672 217.583Z" fill="#BB95F8"/>
<path d="M160.043 162.624L179.771 173.986C182.798 175.741 186.509 175.741 189.537 173.986L209.265 162.624C212.293 160.868 214.148 157.65 214.148 154.187V131.415C214.148 127.952 212.293 124.734 209.265 122.978L189.537 111.616C186.509 109.861 182.798 109.861 179.771 111.616L160.043 122.978C157.015 124.734 155.159 127.952 155.159 131.415V154.187C155.159 157.65 157.015 160.868 160.043 162.624Z" fill="#BB95F8"/>
<path d="M255.214 107.672L274.942 119.034C277.97 120.789 281.681 120.789 284.709 119.034L304.437 107.672C307.465 105.916 309.32 102.698 309.32 99.2355V76.4626C309.32 73.0003 307.465 69.7819 304.437 68.0264L284.709 56.6643C281.681 54.9088 277.97 54.9088 274.942 56.6643L255.214 68.0264C252.187 69.7819 250.331 73.0003 250.331 76.4626V99.2355C250.331 102.698 252.187 105.916 255.214 107.672Z" fill="#BB95F8"/>
<path d="M350.389 52.7127L370.117 64.0748C373.145 65.8303 376.856 65.8303 379.884 64.0748L399.612 52.7127C402.639 50.9572 404.495 47.7388 404.495 44.2765V21.5036C404.495 18.0413 402.639 14.8229 399.612 13.0674L379.884 1.70531C376.856 -0.0502066 373.145 -0.0502066 370.117 1.70531L350.389 13.0674C347.361 14.8229 345.506 18.0413 345.506 21.5036V44.2765C345.506 47.7388 347.361 50.9572 350.389 52.7127Z" fill="#BB95F8"/>
<path d="M5.87881 305.066L25.607 316.428C28.6345 318.183 32.3458 318.183 35.3734 316.428L55.1015 305.066C58.1291 303.31 59.9847 300.092 59.9847 296.629V273.856C59.9847 270.394 58.1291 267.176 55.1015 265.42L35.3734 254.058C32.3458 252.303 28.6345 252.303 25.607 254.058L5.87881 265.42C2.85122 267.176 0.995605 270.394 0.995605 273.856V296.629C0.995605 300.092 2.85122 303.31 5.87881 305.066Z" fill="#BB95F8"/>
<path d="M5.87881 418.591L25.607 429.953C28.6345 431.709 32.3458 431.709 35.3734 429.953L55.1015 418.591C58.1291 416.836 59.9847 413.617 59.9847 410.155V387.382C59.9847 383.92 58.1291 380.701 55.1015 378.946L35.3734 367.584C32.3458 365.828 28.6345 365.828 25.607 367.584L5.87881 378.946C2.85122 380.653 0.995605 383.871 0.995605 387.382V410.155C0.995605 413.617 2.85122 416.836 5.87881 418.591Z" fill="#BB95F8"/>
<path d="M114.14 693.622L94.4117 682.26C91.3841 680.504 87.6729 680.504 84.6453 682.26L64.9171 693.622C61.8896 695.377 60.0339 698.596 60.0339 702.058V724.831C60.0339 728.293 61.8896 731.511 64.9171 733.267L84.6453 744.629C87.6729 746.385 91.3841 746.385 94.4117 744.629L114.14 733.267C117.167 731.511 119.023 728.293 119.023 724.831V702.058C119.023 698.596 117.167 695.377 114.14 693.622Z" fill="#BB95F8"/>
<path d="M209.312 748.579L189.584 737.217C186.556 735.461 182.845 735.461 179.817 737.217L160.089 748.579C157.062 750.334 155.206 753.553 155.206 757.015V779.788C155.206 783.25 157.062 786.468 160.089 788.224L179.817 799.586C182.845 801.342 186.556 801.342 189.584 799.586L209.312 788.224C212.339 786.468 214.195 783.25 214.195 779.788V757.015C214.195 753.553 212.339 750.334 209.312 748.579Z" fill="#BB95F8"/>
<path d="M304.487 803.537L284.758 792.175C281.731 790.42 278.02 790.42 274.992 792.175L255.264 803.537C252.236 805.293 250.381 808.511 250.381 811.973V834.746C250.381 838.209 252.236 841.427 255.264 843.183L274.992 854.545C278.02 856.3 281.731 856.3 284.758 854.545L304.487 843.183C307.514 841.427 309.37 838.209 309.37 834.746V811.973C309.37 808.511 307.514 805.293 304.487 803.537Z" fill="#BB95F8"/>
<path d="M399.661 858.496L379.933 847.134C376.906 845.379 373.194 845.379 370.167 847.134L350.439 858.496C347.411 860.252 345.555 863.47 345.555 866.932V889.705C345.555 893.167 347.411 896.386 350.439 898.141L370.167 909.503C373.194 911.259 376.906 911.259 379.933 909.503L399.661 898.141C402.689 896.386 404.545 893.167 404.545 889.705V866.932C404.545 863.47 402.689 860.252 399.661 858.496Z" fill="#BB95F8"/>
<path d="M59.9847 637.345V614.572C59.9847 611.11 58.1291 607.892 55.1015 606.136L35.3734 594.774C32.3458 593.018 28.6345 593.018 25.607 594.774L5.87881 606.136C2.85122 607.892 0.995605 611.11 0.995605 614.572V637.345C0.995605 640.807 2.85122 644.026 5.87881 645.781L25.607 657.143C28.6345 658.899 32.3458 658.899 35.3734 657.143L55.1015 645.781C58.1291 644.026 59.9847 640.807 59.9847 637.345Z" fill="#BB95F8"/>
<path d="M5.87881 532.261L25.607 543.623C28.6345 545.378 32.3458 545.378 35.3734 543.623L55.1015 532.261C58.1291 530.505 59.9847 527.287 59.9847 523.824V501.051C59.9847 497.589 58.1291 494.371 55.1015 492.615L35.3734 481.253C32.3458 479.498 28.6345 479.498 25.607 481.253L5.87881 492.615C2.85122 494.371 0.995605 497.589 0.995605 501.051V523.824C0.995605 527.335 2.85122 530.554 5.87881 532.261Z" fill="#BB95F8"/>
<path d="M744.463 217.583L764.191 228.945C767.218 230.7 770.93 230.7 773.957 228.945L793.685 217.583C796.713 215.827 798.569 212.609 798.569 209.146V186.373C798.569 182.911 796.713 179.693 793.685 177.937L773.957 166.575C770.93 164.82 767.218 164.82 764.191 166.575L744.463 177.937C741.435 179.693 739.579 182.911 739.579 186.373V209.146C739.579 212.609 741.435 215.827 744.463 217.583Z" fill="#BB95F8"/>
<path d="M649.291 162.624L669.019 173.986C672.046 175.741 675.758 175.741 678.785 173.986L698.513 162.624C701.541 160.868 703.397 157.65 703.397 154.187V131.415C703.397 127.952 701.541 124.734 698.513 122.978L678.785 111.616C675.758 109.861 672.046 109.861 669.019 111.616L649.291 122.978C646.263 124.734 644.407 127.952 644.407 131.415V154.187C644.407 157.65 646.263 160.868 649.291 162.624Z" fill="#BB95F8"/>
<path d="M554.116 107.672L573.844 119.034C576.872 120.789 580.583 120.789 583.61 119.034L603.339 107.672C606.366 105.916 608.222 102.698 608.222 99.2355V76.4626C608.222 73.0003 606.366 69.7819 603.339 68.0264L583.61 56.6643C580.583 54.9088 576.872 54.9088 573.844 56.6643L554.116 68.0264C551.088 69.7819 549.233 73.0003 549.233 76.4626V99.2355C549.233 102.698 551.088 105.916 554.116 107.672Z" fill="#BB95F8"/>
<path d="M458.941 52.7127L478.67 64.0748C481.697 65.8303 485.408 65.8303 488.436 64.0748L508.164 52.7127C511.192 50.9572 513.047 47.7388 513.047 44.2765V21.5036C513.047 18.0413 511.192 14.8229 508.164 13.0674L488.436 1.70531C485.408 -0.0502066 481.697 -0.0502066 478.67 1.70531L458.941 13.0674C455.914 14.8229 454.058 18.0413 454.058 21.5036V44.2765C454.058 47.7388 455.914 50.9572 458.941 52.7127Z" fill="#BB95F8"/>
<path d="M852.724 265.42L832.996 254.058C829.968 252.303 826.257 252.303 823.229 254.058L803.501 265.42C800.473 267.176 798.618 270.394 798.618 273.856V296.629C798.618 300.092 800.473 303.31 803.501 305.066L823.229 316.428C826.257 318.183 829.968 318.183 832.996 316.428L852.724 305.066C855.751 303.31 857.607 300.092 857.607 296.629V273.856C857.607 270.394 855.751 267.176 852.724 265.42Z" fill="#BB95F8"/>
<path d="M852.724 378.946L832.996 367.584C829.968 365.828 826.257 365.828 823.229 367.584L803.501 378.946C800.473 380.701 798.618 383.92 798.618 387.382V410.155C798.618 413.617 800.473 416.836 803.501 418.591L823.229 429.953C826.257 431.709 829.968 431.709 832.996 429.953L852.724 418.591C855.751 416.836 857.607 413.617 857.607 410.155V387.382C857.607 383.92 855.751 380.701 852.724 378.946Z" fill="#BB95F8"/>
<path d="M793.685 693.622L773.957 682.26C770.93 680.504 767.218 680.504 764.191 682.26L744.463 693.622C741.435 695.377 739.579 698.596 739.579 702.058V724.831C739.579 728.293 741.435 731.511 744.463 733.267L764.191 744.629C767.218 746.385 770.93 746.385 773.957 744.629L793.685 733.267C796.713 731.511 798.569 728.293 798.569 724.831V702.058C798.569 698.596 796.713 695.377 793.685 693.622Z" fill="#BB95F8"/>
<path d="M698.513 748.579L678.785 737.217C675.758 735.461 672.046 735.461 669.019 737.217L649.291 748.579C646.263 750.334 644.407 753.553 644.407 757.015V779.788C644.407 783.25 646.263 786.468 649.291 788.224L669.019 799.586C672.046 801.342 675.758 801.342 678.785 799.586L698.513 788.224C701.541 786.468 703.397 783.25 703.397 779.788V757.015C703.397 753.553 701.541 750.334 698.513 748.579Z" fill="#BB95F8"/>
<path d="M603.339 803.537L583.61 792.175C580.583 790.42 576.872 790.42 573.844 792.175L554.116 803.537C551.088 805.293 549.233 808.511 549.233 811.973V834.746C549.233 838.209 551.088 841.427 554.116 843.183L573.844 854.545C576.872 856.3 580.583 856.3 583.61 854.545L603.339 843.183C606.366 841.427 608.222 838.209 608.222 834.746V811.973C608.222 808.511 606.366 805.293 603.339 803.537Z" fill="#BB95F8"/>
<path d="M508.213 858.496L488.485 847.134C485.458 845.379 481.746 845.379 478.719 847.134L458.991 858.496C455.963 860.252 454.108 863.47 454.108 866.932V889.705C454.108 893.167 455.963 896.386 458.991 898.141L478.719 909.503C481.746 911.259 485.458 911.259 488.485 909.503L508.213 898.141C511.241 896.386 513.097 893.167 513.097 889.705V866.932C513.097 863.47 511.241 860.252 508.213 858.496Z" fill="#BB95F8"/>
<path d="M852.724 606.136L832.996 594.774C829.968 593.018 826.257 593.018 823.229 594.774L803.501 606.136C800.473 607.892 798.618 611.11 798.618 614.572V637.345C798.618 640.807 800.473 644.026 803.501 645.781L823.229 657.143C826.257 658.899 829.968 658.899 832.996 657.143L852.724 645.781C855.751 644.026 857.607 640.807 857.607 637.345V614.572C857.607 611.11 855.751 607.892 852.724 606.136Z" fill="#BB95F8"/>
<path d="M852.724 492.615L832.996 481.253C829.968 479.498 826.257 479.498 823.229 481.253L803.501 492.615C800.473 494.371 798.618 497.589 798.618 501.051V523.824C798.618 527.287 800.473 530.505 803.501 532.261L823.229 543.623C826.257 545.378 829.968 545.378 832.996 543.623L852.724 532.261C855.751 530.505 857.607 527.287 857.607 523.824V501.051C857.607 497.589 855.751 494.371 852.724 492.615Z" fill="#BB95F8"/>
</g>
<g opacity="0.6">
<path d="M255.215 333.108L274.943 344.47C277.97 346.226 281.681 346.226 284.709 344.47L304.437 333.108C307.465 331.353 309.32 328.134 309.32 324.672V301.899C309.32 298.437 307.465 295.218 304.437 293.463L284.709 282.101C281.681 280.345 277.97 280.345 274.943 282.101L255.215 293.463C252.187 295.218 250.331 298.437 250.331 301.899V324.672C250.331 328.134 252.187 331.353 255.215 333.108Z" fill="#BB95F8"/>
<path d="M350.389 278.154L370.117 289.516C373.145 291.271 376.856 291.271 379.884 289.516L399.612 278.154C402.64 276.398 404.495 273.18 404.495 269.717V246.945C404.495 243.482 402.64 240.264 399.612 238.508L379.884 227.146C376.856 225.391 373.145 225.391 370.117 227.146L350.389 238.508C347.362 240.264 345.506 243.482 345.506 246.945V269.717C345.506 273.18 347.362 276.398 350.389 278.154Z" fill="#BB95F8"/>
<path d="M191.342 387.43V410.203C191.342 413.665 193.198 416.883 196.226 418.639L215.954 430.001C218.981 431.757 222.693 431.757 225.72 430.001L245.448 418.639C248.476 416.883 250.332 413.665 250.332 410.203V387.43C250.332 383.968 248.476 380.749 245.448 378.994L225.72 367.632C222.693 365.876 218.981 365.876 215.954 367.632L196.226 378.994C193.198 380.749 191.342 383.968 191.342 387.43Z" fill="#BB95F8"/>
<path d="M304.487 578.099L284.759 566.737C281.731 564.982 278.02 564.982 274.992 566.737L255.264 578.099C252.236 579.855 250.381 583.073 250.381 586.536V609.309C250.381 612.771 252.236 615.989 255.264 617.745L274.992 629.107C278.02 630.862 281.731 630.862 284.759 629.107L304.487 617.745C307.514 615.989 309.37 612.771 309.37 609.309V586.536C309.37 583.073 307.514 579.855 304.487 578.099Z" fill="#BB95F8"/>
<path d="M399.661 633.058L379.933 621.696C376.906 619.941 373.194 619.941 370.167 621.696L350.439 633.058C347.411 634.814 345.556 638.032 345.556 641.495V664.267C345.556 667.73 347.411 670.948 350.439 672.704L370.167 684.066C373.194 685.821 376.906 685.821 379.933 684.066L399.661 672.704C402.689 670.948 404.545 667.73 404.545 664.267V641.495C404.545 638.032 402.689 634.814 399.661 633.058Z" fill="#BB95F8"/>
<path d="M250.332 523.776V501.003C250.332 497.54 248.476 494.322 245.448 492.566L225.72 481.204C222.693 479.449 218.981 479.449 215.954 481.204L196.226 492.566C193.198 494.322 191.342 497.54 191.342 501.003V523.776C191.342 527.238 193.198 530.456 196.226 532.212L215.954 543.574C218.981 545.329 222.693 545.329 225.72 543.574L245.448 532.212C248.476 530.456 250.332 527.238 250.332 523.776Z" fill="#BB95F8"/>
<path d="M554.116 333.108L573.845 344.47C576.872 346.226 580.583 346.226 583.611 344.47L603.339 333.108C606.367 331.353 608.222 328.134 608.222 324.672V301.899C608.222 298.437 606.367 295.218 603.339 293.463L583.611 282.101C580.583 280.345 576.872 280.345 573.845 282.101L554.116 293.463C551.089 295.218 549.233 298.437 549.233 301.899V324.672C549.233 328.134 551.089 331.353 554.116 333.108Z" fill="#BB95F8"/>
<path d="M458.941 278.154L478.669 289.516C481.697 291.271 485.408 291.271 488.436 289.516L508.164 278.154C511.191 276.398 513.047 273.18 513.047 269.717V246.945C513.047 243.482 511.191 240.264 508.164 238.508L488.436 227.146C485.408 225.391 481.697 225.391 478.669 227.146L458.941 238.508C455.914 240.264 454.058 243.482 454.058 246.945V269.717C454.058 273.18 455.914 276.398 458.941 278.154Z" fill="#BB95F8"/>
<path d="M608.222 387.43V410.203C608.222 413.665 610.078 416.883 613.105 418.639L632.833 430.001C635.861 431.757 639.572 431.757 642.6 430.001L662.328 418.639C665.355 416.883 667.211 413.665 667.211 410.203V387.43C667.211 383.968 665.355 380.749 662.328 378.994L642.6 367.632C639.572 365.876 635.861 365.876 632.833 367.632L613.105 378.994C610.078 380.749 608.222 383.968 608.222 387.43Z" fill="#BB95F8"/>
<path d="M603.389 578.099L583.661 566.737C580.633 564.982 576.922 564.982 573.895 566.737L554.166 578.099C551.139 579.855 549.283 583.073 549.283 586.536V609.309C549.283 612.771 551.139 615.989 554.166 617.745L573.895 629.107C576.922 630.862 580.633 630.862 583.661 629.107L603.389 617.745C606.417 615.989 608.272 612.771 608.272 609.309V586.536C608.272 583.073 606.417 579.855 603.389 578.099Z" fill="#BB95F8"/>
<path d="M508.214 633.058L488.486 621.696C485.458 619.941 481.747 619.941 478.719 621.696L458.991 633.058C455.964 634.814 454.108 638.032 454.108 641.495V664.267C454.108 667.73 455.964 670.948 458.991 672.704L478.719 684.066C481.747 685.821 485.458 685.821 488.486 684.066L508.214 672.704C511.241 670.948 513.097 667.73 513.097 664.267V641.495C513.097 638.032 511.241 634.814 508.214 633.058Z" fill="#BB95F8"/>
<path d="M667.26 523.776V501.003C667.26 497.54 665.405 494.322 662.377 492.566L642.649 481.204C639.621 479.449 635.91 479.449 632.883 481.204L613.155 492.566C610.127 494.322 608.271 497.54 608.271 501.003V523.776C608.271 527.238 610.127 530.456 613.155 532.212L632.883 543.574C635.91 545.329 639.621 545.329 642.649 543.574L662.377 532.212C665.405 530.456 667.26 527.238 667.26 523.776Z" fill="#BB95F8"/>
</g>
</svg>
