<?xml version="1.0" encoding="UTF-8"?>
<svg xmlns="http://www.w3.org/2000/svg" viewBox="0 0 64 64" role="img" aria-label="Clean Code Solutions Safari Pinned Tab Icon">
  <!-- Monochrome mask-friendly icon -->
  <defs>
    <style>
      .fill { fill: #000; }
    </style>
  </defs>
  <!-- Rounded square background (mask area) -->
  <rect x="6" y="6" width="52" height="52" rx="13" class="fill"/>
  <!-- Braces cutouts -->
  <g transform="translate(32,32) scale(0.75)">
    <path class="fill" d="M-18,-20 h8 v6 h-2 c-3,0 -4,2 -4,6 v2 c0,5 -2,8 -6,9 c4,1 6,4 6,9 v2 c0,4 1,6 4,6 h2 v6 h-8 c-6,0 -10,-4 -10,-12 v-2 c0,-4 -2,-6 -6,-6 v-4 c4,0 6,-2 6,-6 v-2 c0,-8 4,-12 10,-12z"/>
    <path class="fill" d="M18,-20 h-8 v6 h2 c3,0 4,2 4,6 v2 c0,5 2,8 6,9 c-4,1 -6,4 -6,9 v2 c0,4 -1,6 -4,6 h-2 v6 h8 c6,0 10,-4 10,-12 v-2 c0,-4 2,-6 6,-6 v-4 c-4,0 -6,-2 -6,-6 v-2 c0,-8 -4,-12 -10,-12z"/>
  </g>
</svg>
